name D:\school\WTK\thesis\model\3dpredictsim\Results\Batchsim_tmt_linear\Pog_s1_tmt_bCst_d05_k800_ig24.mot
datacolumns 128
datarows 4
range 1.61135309 1.64358015
endheader
time	pelvis_tilt	pelvis_list	pelvis_rotation	pelvis_tx	pelvis_ty	pelvis_tz	hip_flexion_l	hip_adduction_l	hip_rotation_l	hip_flexion_r	hip_adduction_r	hip_rotation_r	knee_angle_l	knee_angle_r	ankle_angle_l	ankle_angle_r	subtalar_angle_l	subtalar_angle_r	tmt_angle_l	tmt_angle_r	mtp_angle_l	mtp_angle_r	lumbar_extension	lumbar_bending	lumbar_rotation	arm_flex_l	arm_add_l	arm_rot_l	arm_flex_r	arm_add_r	arm_rot_r	elbow_flex_l	elbow_flex_r	pro_sup_l	pro_sup_r	glut_med1_l/activation	glut_med2_l/activation	glut_med3_l/activation	glut_min1_l/activation	glut_min2_l/activation	glut_min3_l/activation	semimem_l/activation	semiten_l/activation	bifemlh_l/activation	bifemsh_l/activation	sar_l/activation	add_long_l/activation	add_brev_l/activation	add_mag1_l/activation	add_mag2_l/activation	add_mag3_l/activation	tfl_l/activation	pect_l/activation	grac_l/activation	glut_max1_l/activation	glut_max2_l/activation	glut_max3_l/activation	iliacus_l/activation	psoas_l/activation	quad_fem_l/activation	gem_l/activation	peri_l/activation	rect_fem_l/activation	vas_med_l/activation	vas_int_l/activation	vas_lat_l/activation	med_gas_l/activation	lat_gas_l/activation	soleus_l/activation	tib_post_l/activation	flex_dig_l/activation	flex_hal_l/activation	tib_ant_l/activation	per_brev_l/activation	per_long_l/activation	per_tert_l/activation	ext_dig_l/activation	ext_hal_l/activation	ercspn_l/activation	intobl_l/activation	extobl_l/activation	glut_med1_r/activation	glut_med2_r/activation	glut_med3_r/activation	glut_min1_r/activation	glut_min2_r/activation	glut_min3_r/activation	semimem_r/activation	semiten_r/activation	bifemlh_r/activation	bifemsh_r/activation	sar_r/activation	add_long_r/activation	add_brev_r/activation	add_mag1_r/activation	add_mag2_r/activation	add_mag3_r/activation	tfl_r/activation	pect_r/activation	grac_r/activation	glut_max1_r/activation	glut_max2_r/activation	glut_max3_r/activation	iliacus_r/activation	psoas_r/activation	quad_fem_r/activation	gem_r/activation	peri_r/activation	rect_fem_r/activation	vas_med_r/activation	vas_int_r/activation	vas_lat_r/activation	med_gas_r/activation	lat_gas_r/activation	soleus_r/activation	tib_post_r/activation	flex_dig_r/activation	flex_hal_r/activation	tib_ant_r/activation	per_brev_r/activation	per_long_r/activation	per_tert_r/activation	ext_dig_r/activation	ext_hal_r/activation	ercspn_r/activation	intobl_r/activation	extobl_r/activation	
          1.61135309	         -2.92960059	          2.20000057	         -5.29414768	          2.01419137	          0.85853010	          0.00231627	         31.65375738	          3.09164022	         -1.88531592	        -18.11518540	         -1.62506290	          7.11207507	        -14.72737875	         -6.06780195	          7.33998752	          1.33551244	         -2.88090244	          9.66789453	          0.04361415	          1.27533528	         -0.12670012	         20.51699353	         -1.99950669	         -0.55823478	          1.92694108	         -9.11424207	        -13.51041762	          5.44350334	          7.18040314	        -13.45088515	         15.43220341	         15.40247622	         36.05206846	         86.51662706	         86.51662706	          0.05000031	          0.05000008	          0.05895175	          0.05000005	          0.05000007	          0.05000038	          0.05895198	          0.05895200	          0.20732511	          0.05000017	          0.05000046	          0.11329956	          0.16245457	          0.19176081	          0.15966770	          0.11182151	          0.05895210	          0.05000720	          0.05895301	          0.05895392	          0.06950647	          0.10313258	          0.05000005	          0.05000007	          0.17460527	          0.05000052	          0.05000015	          0.05000009	          0.09825315	          0.10142510	          0.08678304	          0.05774645	          0.05000097	          0.05895194	          0.05000002	          0.05000044	          0.05000074	          0.49299570	          0.37208094	          0.21578620	          0.27952431	          0.53869578	          0.26823963	          0.07134112	          0.11091061	          0.11392302	          0.32473068	          0.11392233	          0.08195099	          0.33076972	          0.22090105	          0.11392301	          0.05000044	          0.05000007	          0.05000005	          0.07652971	          0.11392276	          0.05000005	          0.05000005	          0.05000006	          0.05000018	          0.05000013	          0.32753941	          0.05000025	          0.05000017	          0.05000287	          0.05000128	          0.05000041	          0.38675916	          0.63682275	          0.05000007	          0.05000026	          0.05276535	          0.20166844	          0.05000082	          0.05000038	          0.05000039	          0.33114764	          0.44680832	          0.31494304	          0.27406212	          0.29133962	          0.38489677	          0.05000001	          0.05970134	          0.15815259	          0.05000009	          0.05000002	          0.05000008	          0.05000000	          0.05000000	          0.05000001	
          1.62209545	         -2.92487702	          2.29581813	         -5.58253575	          2.03017014	          0.85745778	          0.00211837	         31.07551959	          3.45851211	         -1.69045951	        -17.98454949	         -1.92437930	          6.88825577	        -14.63092455	         -8.00003647	          6.76712390	          0.60832526	         -3.36129151	         10.62227145	          0.05232671	          1.23322078	         -0.10774660	         21.63183093	         -1.81252699	         -0.78153536	          2.00090703	        -10.10628651	        -13.50233894	          5.34714342	          7.05442486	        -13.45631479	         15.68061550	         15.22449880	         37.13655164	         86.51662706	         86.51662706	          0.06210640	          0.05564559	          0.05000005	          0.05895214	          0.05895189	          0.05000026	          0.05000004	          0.05000011	          0.17687157	          0.05000015	          0.05000067	          0.09609541	          0.13778570	          0.23817734	          0.17619957	          0.09877921	          0.05000018	          0.05000137	          0.05000109	          0.05000218	          0.05895189	          0.11660505	          0.05234740	          0.06254070	          0.51904375	          0.13433683	          0.08741822	          0.06950675	          0.18875852	          0.19359592	          0.16693002	          0.05000000	          0.05000000	          0.05000000	          0.05000010	          0.05895210	          0.05011291	          0.54677493	          0.33088021	          0.22588632	          0.44090797	          0.57479224	          0.24521059	          0.06050785	          0.09406864	          0.09662361	          0.27541978	          0.09662303	          0.06950660	          0.28054179	          0.18735685	          0.09662361	          0.05000198	          0.05000027	          0.05000041	          0.06490855	          0.09662346	          0.12154119	          0.06538127	          0.06759505	          0.05000410	          0.06950586	          0.27780203	          0.05927281	          0.05000129	          0.05000116	          0.05000086	          0.05000086	          0.32802911	          0.56850805	          0.05000025	          0.05894303	          0.05895199	          0.17104476	          0.05000134	          0.18603853	          0.17164297	          0.28086228	          0.37895969	          0.26775400	          0.24704329	          0.24709980	          0.32644997	          0.05000001	          0.05063566	          0.15843263	          0.05000006	          0.05000001	          0.05000006	          0.05000000	          0.06950668	          0.05000001	
          1.63283780	         -2.91619470	          2.38941649	         -5.84701601	          2.04644928	          0.85640254	          0.00193163	         30.36657831	          3.76808860	         -1.42967831	        -17.78009795	         -2.21622849	          6.65193481	        -15.04249457	        -10.06294502	          6.15433317	         -0.27411394	         -3.86464148	         11.53457772	         -0.03597151	          1.16435442	         -0.15067016	         22.62570539	         -1.60297226	         -1.00936944	          2.06509482	        -11.11932789	        -13.49681680	          5.28398557	          6.84539332	        -13.45993602	         15.86632510	         15.10032410	         38.18045818	         86.51662706	         86.51662706	          0.26226764	          0.05000002	          0.28906779	          0.05000020	          0.05000007	          0.23028203	          0.07672836	          0.05000024	          0.16083175	          0.05000005	          0.05000019	          0.08195302	          0.23083850	          0.20200987	          0.14944448	          0.13182059	          0.05000022	          0.05895371	          0.12517359	          0.05000005	          0.05000006	          0.09898561	          0.05895188	          0.05336835	          0.44022604	          0.11393758	          0.15457249	          0.05895203	          0.16009523	          0.16419807	          0.14158142	          0.05950286	          0.05895293	          0.05895201	          0.05895196	          0.05000019	          0.05000020	          0.46374618	          0.34498724	          0.19158512	          0.37395540	          0.58207277	          0.20797493	          0.05131963	          0.10382965	          0.08195115	          0.35088882	          0.08195066	          0.05895192	          0.23794110	          0.15890640	          0.08195116	          0.05000092	          0.05000031	          0.05000031	          0.05505209	          0.08195112	          0.14420679	          0.12455739	          0.05895286	          0.05895229	          0.05895206	          0.23561747	          0.08576045	          0.05379458	          0.05000429	          0.05000507	          0.05895146	          0.27821736	          0.54145503	          0.05895167	          0.05000062	          0.05000008	          0.14507132	          0.09695438	          0.15778848	          0.14557896	          0.23821284	          0.32141398	          0.22709507	          0.20952936	          0.20957735	          0.27687803	          0.05000000	          0.05000013	          0.17808624	          0.05000003	          0.05000000	          0.05000005	          0.05587922	          0.05895197	          0.05015322	
          1.64358015	         -2.90519941	          2.48230335	         -6.07985674	          2.06287169	          0.85536843	          0.00173509	         29.53023695	          4.03931284	         -1.15846626	        -17.48169074	         -2.49863112	          6.41009991	        -15.47415166	        -12.27152851	          5.70311017	         -1.30681042	         -4.36270801	         12.38826000	         -0.01893556	          1.08520531	         -0.16270671	         23.43237277	         -1.38685203	         -1.24230663	          2.12015870	        -12.11172492	        -13.49486190	          5.26995214	          6.57534910	        -13.46658802	         16.00270598	         15.00281932	         39.17463541	         86.51662706	         86.51662706	          0.31825995	          0.28771980	          0.35980236	          0.17402772	          0.20911723	          0.19531351	          0.06507706	          0.09281648	          0.13640918	          0.08195114	          0.05105400	          0.06950832	          0.19578527	          0.17133436	          0.12675117	          0.14998125	          0.05000016	          0.05000162	          0.10616590	          0.21950560	          0.16764067	          0.12770067	          0.05000003	          0.05000003	          0.37337696	          0.09663605	          0.13110048	          0.05000007	          0.13578455	          0.14786312	          0.12008214	          0.05046725	          0.05000083	          0.05000004	          0.05000000	          0.05895197	          0.05222052	          0.58833193	          0.42183324	          0.21716652	          0.63520544	          0.63889076	          0.32963376	          0.07552364	          0.09119578	          0.06950672	          0.30426551	          0.06950631	          0.05000005	          0.35313478	          0.13477621	          0.06950675	          0.05000130	          0.05000007	          0.05000006	          0.05000009	          0.06950714	          0.13153414	          0.10564319	          0.05000085	          0.05000055	          0.05000025	          0.25519123	          0.07273881	          0.05000024	          0.05000061	          0.05000037	          0.05000024	          0.23596963	          0.50381873	          0.05000004	          0.05000030	          0.05000018	          0.13427560	          0.08223184	          0.13382846	          0.12635345	          0.20203979	          0.27260670	          0.19261028	          0.17771196	          0.17775271	          0.23483364	          0.05000002	          0.09456495	          0.18470006	          0.05000007	          0.05000026	          0.05000009	          0.07586902	          0.05000001	          0.05000000	
